{"title":"Distant Shores S01","uid":12039914,"size":2074207644,"categoryP":"video","categoryS":"tv_shows","magnet":"?xt=urn:btih:db24e29f8491a46835adbd6d431bd7d2c1c1c300&amp;dn=Distant+Shores+S01&amp;tr=udp%3A%2F%2Ftracker.openbittorrent.com%3A80&amp;tr=udp%3A%2F%2Fopen.demonii.com%3A1337&amp;tr=udp%3A%2F%2Ftracker.coppersurfer.tk%3A6969&amp;tr=udp%3A%2F%2Fexodus.desync.com%3A6969","seeders":1,"leechers":0,"uploader":"RedBaron58","files":6,"time":1434754298,"description":"Distant Shores S01 x264 mp4\n  &lt;a href=&quot;\nhttp://www.imdb.com/title/tt0416363/&quot; rel=&quot;nofollow&quot; target=&quot;_NEW&quot;&gt;\nhttp://www.imdb.com/title/tt0416363/&lt;/a&gt;\n\nTrailer:\n\n\nThank you for your kind comments and feedback on my other torrents, your feedback is welcome.\n\n\nAbout the Series:\nPeter Davison plays a successful London plastic surgeon Bill Shore. In a bid to save their marriage, \nhis wife Lisa, played by Samantha Bond, accepts a six-month veterinary research job on a small \nNorthumbrian island called Hildasay. \nBill reluctantly agrees to relocate on the island with his wife, daughter and son. The stories \nrevolve around the various ways in which the family adjust to the island and its welcoming, \nbut sometimes peculiar, inhabitants.\n\n\nI hope you enjoy.\n\n\nTechnical: (All episodes are encoded to the same settings)\n\nGeneral\nComplete name                            : H:Distant Shores S01Distant Shores S01E01 x264 RB58.mp4\nFormat                                   : MPEG-4\nFormat profile                           : Base Media / Version 2\nCodec ID                                 : mp42\nFile size                                : 326 MiB\nDuration                                 : 45mn 34s\nOverall bit rate mode                    : Variable\nOverall bit rate                         : 1 000 Kbps\nEncoded date                             : UTC 2015-06-17 11:45:50\nTagged date                              : UTC 2015-06-17 11:58:13\nWriting application                      : HandBrake 0.9.9 2013052900\n\nVideo\nID                                       : 1\nFormat                                   : AVC\nFormat/Info                              : Advanced Video Codec\nFormat profile                           : &lt;a class=&quot;__cf_email__&quot; href=&quot;/cdn-cgi/l/email-protection&quot; data-cfemail=&quot;531e323a3d131f677d63&quot;&gt;[email&amp;#160;protected]&lt;/a&gt;&lt;script data-cfhash='f9e31' type=&quot;text/javascript&quot;&gt;\n/* &lt;![CDATA[ */!function(){try{var t=&quot;currentScript&quot;in document?document.currentScript:function(){for(var t=document.getElementsByTagName(&quot;script&quot;),e=t.length;e--;)if(t[e].getAttribute(&quot;data-cfhash&quot;))return t[e]}();if(t&amp;&amp;t.previousSibling){var e,r,n,i,c=t.previousSibling,a=c.getAttribute(&quot;data-cfemail&quot;);if(a){for(e=&quot;&quot;,r=parseInt(a.substr(0,2),16),n=2;a.length-n;n+=2)i=parseInt(a.substr(n,2),16)^r,e+=String.fromCharCode(i);e=document.createTextNode(e),c.parentNode.replaceChild(e,c)}t.parentNode.removeChild(t);}}catch(u){}}()/* ]]&gt; */&lt;/script&gt;\nFormat settings, CABAC                   : Yes\nFormat settings, ReFrames                : 4 frames\nCodec ID                                 : avc1\nCodec ID/Info                            : Advanced Video Coding\nDuration                                 : 45mn 34s\nBit rate mode                            : Variable\nBit rate                                 : 900 Kbps\nWidth                                    : 720 pixels\nHeight                                   : 578 pixels\nDisplay aspect ratio                     : 16:9\nFrame rate mode                          : Constant\nFrame rate                               : 25.000 fps\nColor space                              : YUV\nChroma subsampling                       : 4:2:0\nBit depth                                : 8 bits\nScan type                                : Progressive\nBits/(Pixel*Frame)                       : 0.087\nStream size                              : 293 MiB (90%)\nWriting library                          : x264 core 130 r2273 b3065e6\nEncoding settings                        : cabac=1 / ref=1 / deblock=1:0:0\nEncoded date                             : UTC 2015-06-17 11:45:50\nTagged date                              : UTC 2015-06-17 11:58:13\nColor primaries                          : BT.601 PAL\nTransfer characteristics                 : BT.709\nMatrix coefficients                      : BT.601\n\nAudio\nID                                       : 2\nFormat                                   : AAC\nFormat/Info                              : Advanced Audio Codec\nFormat profile                           : LC\nCodec ID                                 : 40\nDuration                                 : 45mn 34s\nBit rate mode                            : Variable\nBit rate                                 : 96.0 Kbps\nMaximum bit rate                         : 145 Kbps\nChannel(s)                               : 2 channels\nChannel positions                        : Front: L R\nSampling rate                            : 48.0 KHz\nCompression mode                         : Lossy\nDelay relative to video                  : 80ms\nStream size                              : 31.3 MiB (10%)\nLanguage                                 : English\nEncoded date                             : UTC 2015-06-17 11:45:50\nTagged date                              : UTC 2015-06-17 11:58:12","torrent":{"xt":"urn:btih:db24e29f8491a46835adbd6d431bd7d2c1c1c300","amp;dn":"Distant+Shores+S01","amp;tr":["udp%3A%2F%2Ftracker.openbittorrent.com%3A80","udp%3A%2F%2Fopen.demonii.com%3A1337","udp%3A%2F%2Ftracker.coppersurfer.tk%3A6969","udp%3A%2F%2Fexodus.desync.com%3A6969"],"infoHash":"db24e29f8491a46835adbd6d431bd7d2c1c1c300","infoHashBuffer":{"type":"Buffer","data":[219,36,226,159,132,145,164,104,53,173,189,109,67,27,215,210,193,193,195,0]},"announce":[],"urlList":[]}}